# xmcd
#
# Track frame offsets: 
#        150
#        12471
#        28696
#        46376
#        60878
#        76281
#        95681
#        112349
#        131371
#        144959
#        161298
#
# Disc length: 2342 seconds
#
# Revision: 0
# Processed by: cddbd v1.5.2PL0 Copyright (c) Steve Scherf et al.
# Submitted via: ExactAudioCopy v0.99pb4
#
DISCID=8709240b
DTITLE=Thea Gilmore - Strange Communion
DYEAR=2009
DGENRE=Folk
TTITLE0=Sol Invictus
TTITLE1=Thea Gilmore's Midwinter Toast
TTITLE2=Cold Coming
TTITLE3=That'll Be Christmas
TTITLE4=Listen, The Snow Is Falling
TTITLE5=Drunken Angel
TTITLE6=The St Stephens Day Murders
TTITLE7=December In New York
TTITLE8=Book Of Christmas
TTITLE9=Old December
TTITLE10=That'll Be Christmas (single mix)
EXTD=
EXTT0=
EXTT1=
EXTT2=
EXTT3=
EXTT4=
EXTT5=
EXTT6=
EXTT7=
EXTT8=
EXTT9=
EXTT10=
PLAYORDER=
